#!OML:ASF E:/inclinewalkrobotboard/Project1/Captureday1/Session1/subject1.ASF
:FULLY-SPECIFIED
:DEGREES
138
root 0 0 0 1.1055346804369113 -3.7049383904961473 1.813623847095139
lowerback 11.910288432199152 0.862572925644838 -0.028751176408667506
upperback -4.2255260418362255 1.0970804179860996 -0.5454715315385814
thorax -11.288960731361284 0.5010724711299562 -0.8073621618026718
lowerneck -5.8173688904032534 1.4754148368692288 4.5676646411456705
upperneck 18.088597891400223 2.9313615086048914 -8.331807479220338
head 6.613930474079417 1.0654977544789825 -3.222292333032147
rclavicle 1.4483360502003682E-15 -1.210876970641675E-15
rhumerus 19.414090527205964 14.031714822835433 -48.37729369408457
rradius 71.74061221971169
rwrist 26.666117378506645
rhand -34.61729992564645 -56.26050502868776
rfingers 7.125020000000028
rthumb -7.759282671166607 -86.19168178978501
lclavicle 1.243250104793035E-15 -1.891676811299085E-15
lhumerus 20.7422530904727 -12.307607127048893 44.86791653010025
lradius 69.75479219353913
lwrist -22.665682295226926
lhand -44.489953248155956 -69.25929708613485
lfingers 7.12502000000002
lthumb -17.31704258144936 -39.982764644926434
rfemur -24.645065860103692 -2.097089712709496 17.181890392663092
rtibia 53.83671701030883
rfoot -29.095733684911526 -17.029555253380806
rtoes -18.31818489731804
lfemur -26.24550008535523 2.5192637740968626 -18.01832210890228
ltibia 54.20011427869839
lfoot -31.06349289210729 -3.4475214829097975
ltoes -20.15520861084351
139
root 0 0 0 1.1053585608952488 -3.705061646897675 1.813640691213064
lowerback 11.91029167492289 0.8625514873873656 -0.02872143729904214
upperback -4.2254284860332 1.0970618126068978 -0.5454432116757604
thorax -11.28885294891735 0.501061987875726 -0.8073413698767345
lowerneck -5.81678306043843 1.4753196487083962 4.567774538506033
upperneck 18.088264232596202 2.9312524477889528 -8.332110155818249
head 6.6137251451459615 1.0654482340141818 -3.22241805317911
rclavicle 1.4542592927865324E-15 -1.2116216899353164E-15
rhumerus 19.414461509426843 14.032167044953537 -48.377366297099655
rradius 71.7407844794096
rwrist 26.665898671682832
rhand -34.61678653087375 -56.259708090649355
rfingers 7.125020000000028
rthumb -7.758787116952279 -86.19083868481734
lclavicle 1.2478847585219802E-15 -1.8928302620353175E-15
lhumerus 20.742319708138528 -12.307943535222842 44.8675327056307
lradius 69.75489603980472
lwrist -22.665743940011073
lhand -44.48969351111704 -69.25797381381366
lfingers 7.12502000000002
lthumb -17.316798189956508 -39.98155997457569
rfemur -24.645122215972265 -2.0970644088045383 17.18188322258961
rtibia 53.836621502292864
rfoot -29.095726648675374 -17.029517419573974
rtoes -18.31815268698999
lfemur -26.24528803372573 2.5193481330979246 -18.01831647704041
ltibia 54.19994875951283
lfoot -31.063370144429772 -3.4474423649517414
ltoes -20.15588641324843
140
root 0 0 0 1.1051550346458727 -3.705208793729719 1.8136587432935867
lowerback 11.910291762601698 0.8625269813689803 -0.02868582594821706
upperback -4.225319017812375 1.0970406604638145 -0.5454106766833744
thorax -11.288729833312937 0.5010499872816709 -0.8073183740846726
lowerneck -5.816102834185614 1.4752118460383796 4.567902547936272
upperneck 18.08787870842998 2.9311297692457794 -8.332459596760074
head 6.61348718552436 1.0653925795056831 -3.222563023133574
rclavicle 1.4573849358910315E-15 -1.2116544790259714E-15
rhumerus 19.415138940074318 14.032901612607654 -48.37720064944269
rradius 71.7411924681552
rwrist 26.66565349261898
rhand -34.61592179160226 -56.25855031630266
rfingers 7.125020000000028
rthumb -7.757946617935293 -86.18969957520042
lclavicle 1.2506528945749185E-15 -1.893124654059557E-15
lhumerus 20.742362633888163 -12.308289665522336 44.86719575367053
lradius 69.75502075658608
lwrist -22.665777638491917
lhand -44.48939688207314 -69.25632674447007
lfingers 7.12502000000002
lthumb -17.316510094897826 -39.979950624549
rfemur -24.645072788960686 -2.09704755310025 17.181905424158767
rtibia 53.83667744174856
rfoot -29.095753501010762 -17.029460981092893
rtoes -18.31820583384494
lfemur -26.24511857909956 2.519446498895004 -18.018309123658412
ltibia 54.199985029865026
lfoot -31.063310764268508 -3.447374640492535
ltoes -20.156465359163768
141
root 0 0 0 1.1050084926553583 -3.705313735690913 1.8136721009144374
lowerback 11.910293139955566 0.862509224621324 -0.02865995811992894
upperback -4.225238292429481 1.0970254088098492 -0.5453869835999329
thorax -11.288639799184088 0.5010413214037225 -0.8073015861557847
lowerneck -5.81560973213516 1.4751320840899678 4.567995066200329
upperneck 18.087596441854807 2.931038474881249 -8.332713533194823
head 6.613313815057564 1.0653511670038036 -3.222668533661491
rclavicle 1.4580072483000116E-15 -1.2113762229493092E-15
rhumerus 19.415445631998217 14.033221303340756 -48.377066975998844
rradius 71.74136179353506
rwrist 26.66556760531839
rhand -34.61546974122132 -56.257951726858295
rfingers 7.125020000000028
rthumb -7.757508982939143 -86.18911967054706
lclavicle 1.251079341631878E-15 -1.892853748153579E-15
lhumerus 20.742411455319868 -12.30847131374052 44.86701927155825
lradius 69.75509599769455
lwrist -22.665804812487657
lhand -44.489267575565165 -69.25552569481256
lfingers 7.12502000000002
lthumb -17.31638337568304 -39.97914701957515
rfemur -24.645070183404467 -2.097045464707456 17.181913081832608
rtibia 53.83669770979908
rfoot -29.09579000634367 -17.029452986552826
rtoes -18.318213941546848
lfemur -26.245013754485264 2.5195072579879683 -18.01830468624015
ltibia 54.199982662560146
lfoot -31.063285847588297 -3.447313740438311
ltoes -20.156834289082802
